<svg width="224" height="58" viewBox="0 0 224 58" fill="none" xmlns="http://www.w3.org/2000/svg">
<g filter="url(#filter0_d_26764_8)">
<rect x="4" width="216" height="50" rx="4" fill="#2196F3"/>
</g>
<path d="M41.4016 24.5469H39.6359V23.3047H41.0422C41.4536 23.3047 41.787 23.2422 42.0422 23.1172C42.2974 22.987 42.4849 22.8047 42.6047 22.5703C42.7245 22.3359 42.7844 22.0599 42.7844 21.7422C42.7844 21.4818 42.7167 21.2422 42.5813 21.0234C42.451 20.8047 42.2479 20.6302 41.9719 20.5C41.6958 20.3646 41.3443 20.2969 40.9172 20.2969C40.5943 20.2969 40.3 20.3542 40.0344 20.4688C39.7688 20.5833 39.5578 20.7448 39.4016 20.9531C39.2453 21.1562 39.1672 21.4036 39.1672 21.6953H36.8313C36.8313 21.1953 36.938 20.7474 37.1516 20.3516C37.3703 19.9505 37.6672 19.612 38.0422 19.3359C38.4224 19.0547 38.8599 18.8411 39.3547 18.6953C39.8495 18.5495 40.3703 18.4766 40.9172 18.4766C41.5578 18.4766 42.1359 18.5469 42.6516 18.6875C43.1672 18.8229 43.6099 19.026 43.9797 19.2969C44.3495 19.5677 44.6333 19.9036 44.8313 20.3047C45.0292 20.7057 45.1281 21.1719 45.1281 21.7031C45.1281 22.0938 45.0396 22.4609 44.8625 22.8047C44.6854 23.1484 44.4328 23.4505 44.1047 23.7109C43.7766 23.9714 43.3833 24.1771 42.925 24.3281C42.4667 24.474 41.9589 24.5469 41.4016 24.5469ZM39.6359 23.8672H41.4016C42.0214 23.8672 42.5708 23.9323 43.05 24.0625C43.5344 24.1927 43.9432 24.3828 44.2766 24.6328C44.6151 24.8828 44.8703 25.1927 45.0422 25.5625C45.2193 25.9271 45.3078 26.3464 45.3078 26.8203C45.3078 27.3516 45.1984 27.8229 44.9797 28.2344C44.7661 28.6458 44.4615 28.9948 44.0656 29.2812C43.675 29.5677 43.2115 29.7839 42.675 29.9297C42.1438 30.0755 41.5578 30.1484 40.9172 30.1484C40.4068 30.1484 39.899 30.0859 39.3938 29.9609C38.8885 29.8307 38.4302 29.6328 38.0188 29.3672C37.6073 29.1016 37.2792 28.7604 37.0344 28.3438C36.7896 27.9271 36.6672 27.4271 36.6672 26.8438H39.0188C39.0188 27.1198 39.0995 27.3724 39.2609 27.6016C39.4224 27.8255 39.6464 28.0052 39.9328 28.1406C40.2193 28.2708 40.5474 28.3359 40.9172 28.3359C41.3495 28.3359 41.7167 28.2682 42.0188 28.1328C42.326 27.9974 42.5578 27.8125 42.7141 27.5781C42.8755 27.3385 42.9563 27.0755 42.9563 26.7891C42.9563 26.4818 42.9146 26.2214 42.8313 26.0078C42.7479 25.7943 42.6255 25.6198 42.4641 25.4844C42.3026 25.3438 42.1021 25.2422 41.8625 25.1797C41.6281 25.1172 41.3547 25.0859 41.0422 25.0859H39.6359V23.8672ZM52.4241 28.0938V24.3281C52.4241 24.0573 52.3798 23.8255 52.2913 23.6328C52.2027 23.4349 52.0647 23.2812 51.8772 23.1719C51.6949 23.0625 51.4579 23.0078 51.1663 23.0078C50.9163 23.0078 50.7001 23.0521 50.5178 23.1406C50.3355 23.224 50.1949 23.3464 50.0959 23.5078C49.997 23.6641 49.9475 23.849 49.9475 24.0625H47.6975C47.6975 23.7031 47.7808 23.362 47.9475 23.0391C48.1142 22.7161 48.3564 22.4323 48.6741 22.1875C48.9918 21.9375 49.3694 21.7422 49.8069 21.6016C50.2496 21.4609 50.7444 21.3906 51.2913 21.3906C51.9475 21.3906 52.5308 21.5 53.0413 21.7188C53.5517 21.9375 53.9527 22.2656 54.2444 22.7031C54.5413 23.1406 54.6897 23.6875 54.6897 24.3438V27.9609C54.6897 28.4245 54.7183 28.8047 54.7756 29.1016C54.8329 29.3932 54.9163 29.6484 55.0256 29.8672V30H52.7522C52.6428 29.7708 52.5595 29.4844 52.5022 29.1406C52.4501 28.7917 52.4241 28.4427 52.4241 28.0938ZM52.7209 24.8516L52.7366 26.125H51.4788C51.1819 26.125 50.9241 26.1589 50.7053 26.2266C50.4866 26.2943 50.3069 26.3906 50.1663 26.5156C50.0256 26.6354 49.9215 26.776 49.8538 26.9375C49.7913 27.099 49.76 27.276 49.76 27.4688C49.76 27.6615 49.8043 27.8359 49.8928 27.9922C49.9814 28.1432 50.109 28.263 50.2756 28.3516C50.4423 28.4349 50.6376 28.4766 50.8616 28.4766C51.2001 28.4766 51.4944 28.4089 51.7444 28.2734C51.9944 28.138 52.1871 27.9714 52.3225 27.7734C52.4631 27.5755 52.536 27.388 52.5413 27.2109L53.135 28.1641C53.0517 28.3776 52.9371 28.599 52.7913 28.8281C52.6506 29.0573 52.4709 29.2734 52.2522 29.4766C52.0334 29.6745 51.7704 29.8385 51.4631 29.9688C51.1558 30.0938 50.7913 30.1562 50.3694 30.1562C49.8329 30.1562 49.3459 30.0495 48.9084 29.8359C48.4761 29.6172 48.1324 29.3177 47.8772 28.9375C47.6272 28.5521 47.5022 28.1146 47.5022 27.625C47.5022 27.1823 47.5855 26.7891 47.7522 26.4453C47.9189 26.1016 48.1636 25.8125 48.4866 25.5781C48.8147 25.3385 49.2235 25.1589 49.7131 25.0391C50.2027 24.9141 50.7704 24.8516 51.4163 24.8516H52.7209ZM62.5247 27.4141L64.7434 21.5469H66.5794L63.2825 30H61.7669L58.4856 21.5469H60.3216L62.5247 27.4141ZM59.7825 21.5469V30H57.5325V21.5469H59.7825ZM65.3216 30V21.5469H67.5716V30H65.3216ZM70.1409 25.8594V25.6953C70.1409 25.0755 70.2295 24.5052 70.4066 23.9844C70.5836 23.4583 70.8415 23.0026 71.18 22.6172C71.5185 22.2318 71.9352 21.9323 72.43 21.7188C72.9248 21.5 73.4925 21.3906 74.1331 21.3906C74.7738 21.3906 75.3441 21.5 75.8441 21.7188C76.3441 21.9323 76.7633 22.2318 77.1019 22.6172C77.4456 23.0026 77.706 23.4583 77.8831 23.9844C78.0602 24.5052 78.1488 25.0755 78.1488 25.6953V25.8594C78.1488 26.474 78.0602 27.0443 77.8831 27.5703C77.706 28.0911 77.4456 28.5469 77.1019 28.9375C76.7633 29.3229 76.3467 29.6224 75.8519 29.8359C75.3571 30.0495 74.7894 30.1562 74.1488 30.1562C73.5081 30.1562 72.9378 30.0495 72.4378 29.8359C71.943 29.6224 71.5238 29.3229 71.18 28.9375C70.8415 28.5469 70.5836 28.0911 70.4066 27.5703C70.2295 27.0443 70.1409 26.474 70.1409 25.8594ZM72.3909 25.6953V25.8594C72.3909 26.2135 72.4222 26.5443 72.4847 26.8516C72.5472 27.1589 72.6461 27.4297 72.7816 27.6641C72.9222 27.8932 73.1045 28.0729 73.3284 28.2031C73.5524 28.3333 73.8258 28.3984 74.1488 28.3984C74.4613 28.3984 74.7295 28.3333 74.9534 28.2031C75.1774 28.0729 75.3571 27.8932 75.4925 27.6641C75.6279 27.4297 75.7269 27.1589 75.7894 26.8516C75.8571 26.5443 75.8909 26.2135 75.8909 25.8594V25.6953C75.8909 25.3516 75.8571 25.0286 75.7894 24.7266C75.7269 24.4193 75.6253 24.1484 75.4847 23.9141C75.3493 23.6745 75.1696 23.487 74.9456 23.3516C74.7217 23.2161 74.4508 23.1484 74.1331 23.1484C73.8154 23.1484 73.5446 23.2161 73.3206 23.3516C73.1019 23.487 72.9222 23.6745 72.7816 23.9141C72.6461 24.1484 72.5472 24.4193 72.4847 24.7266C72.4222 25.0286 72.3909 25.3516 72.3909 25.6953ZM84.7025 26.4688H82.0541L82.0384 24.9922H84.2259C84.5176 24.9922 84.7546 24.9635 84.9369 24.9062C85.1192 24.8438 85.252 24.7526 85.3353 24.6328C85.4239 24.5078 85.4681 24.3568 85.4681 24.1797C85.4681 24.0234 85.4395 23.8906 85.3822 23.7812C85.3301 23.6667 85.2494 23.5729 85.14 23.5C85.0306 23.4271 84.8926 23.375 84.7259 23.3438C84.5645 23.3073 84.3744 23.2891 84.1556 23.2891H82.89V30H80.64V21.5469H84.1556C84.7077 21.5469 85.2025 21.5964 85.64 21.6953C86.0775 21.7891 86.4499 21.9323 86.7572 22.125C87.0697 22.3177 87.3067 22.5625 87.4681 22.8594C87.6348 23.151 87.7181 23.4974 87.7181 23.8984C87.7181 24.1589 87.6582 24.4036 87.5384 24.6328C87.4239 24.862 87.252 25.0651 87.0228 25.2422C86.7936 25.4193 86.5098 25.5651 86.1713 25.6797C85.8379 25.7891 85.4525 25.8568 85.015 25.8828L84.7025 26.4688ZM84.7025 30H81.4994L82.2728 28.2578H84.7025C84.9785 28.2578 85.2051 28.224 85.3822 28.1562C85.5593 28.0885 85.6895 27.9896 85.7728 27.8594C85.8614 27.724 85.9056 27.5625 85.9056 27.375C85.9056 27.1927 85.8666 27.0339 85.7884 26.8984C85.7103 26.763 85.5827 26.6589 85.4056 26.5859C85.2338 26.5078 84.9994 26.4688 84.7025 26.4688H82.6009L82.6166 24.9922H85.0072L85.5541 25.5859C86.1478 25.6224 86.6374 25.7344 87.0228 25.9219C87.4082 26.1094 87.6921 26.349 87.8744 26.6406C88.0619 26.9271 88.1556 27.2422 88.1556 27.5859C88.1556 27.987 88.0801 28.3385 87.9291 28.6406C87.778 28.9427 87.5541 29.1953 87.2572 29.3984C86.9655 29.5964 86.6061 29.7474 86.1791 29.8516C85.752 29.9505 85.2598 30 84.7025 30ZM92.7406 26.8594L95.5766 21.5469H97.8266V30H95.5766V24.6797L92.7406 30H90.4906V21.5469H92.7406V26.8594ZM104.826 21.5469V30H102.568V21.5469H104.826ZM107.544 21.5469V23.2891H99.8881V21.5469H107.544ZM111.895 26.8594L114.731 21.5469H116.981V30H114.731V24.6797L111.895 30H109.645V21.5469H111.895V26.8594ZM130.307 21.5469V23.3125H126.213V21.5469H130.307ZM126.862 21.5469V30H124.612V21.5469H126.862ZM131.948 21.5469V30H129.69V21.5469H131.948ZM134.283 25.8594V25.6953C134.283 25.0755 134.371 24.5052 134.548 23.9844C134.726 23.4583 134.983 23.0026 135.322 22.6172C135.66 22.2318 136.077 21.9323 136.572 21.7188C137.067 21.5 137.634 21.3906 138.275 21.3906C138.916 21.3906 139.486 21.5 139.986 21.7188C140.486 21.9323 140.905 22.2318 141.244 22.6172C141.588 23.0026 141.848 23.4583 142.025 23.9844C142.202 24.5052 142.291 25.0755 142.291 25.6953V25.8594C142.291 26.474 142.202 27.0443 142.025 27.5703C141.848 28.0911 141.588 28.5469 141.244 28.9375C140.905 29.3229 140.489 29.6224 139.994 29.8359C139.499 30.0495 138.931 30.1562 138.291 30.1562C137.65 30.1562 137.08 30.0495 136.58 29.8359C136.085 29.6224 135.666 29.3229 135.322 28.9375C134.983 28.5469 134.726 28.0911 134.548 27.5703C134.371 27.0443 134.283 26.474 134.283 25.8594ZM136.533 25.6953V25.8594C136.533 26.2135 136.564 26.5443 136.627 26.8516C136.689 27.1589 136.788 27.4297 136.923 27.6641C137.064 27.8932 137.246 28.0729 137.47 28.2031C137.694 28.3333 137.968 28.3984 138.291 28.3984C138.603 28.3984 138.871 28.3333 139.095 28.2031C139.319 28.0729 139.499 27.8932 139.634 27.6641C139.77 27.4297 139.869 27.1589 139.931 26.8516C139.999 26.5443 140.033 26.2135 140.033 25.8594V25.6953C140.033 25.3516 139.999 25.0286 139.931 24.7266C139.869 24.4193 139.767 24.1484 139.627 23.9141C139.491 23.6745 139.311 23.487 139.088 23.3516C138.864 23.2161 138.593 23.1484 138.275 23.1484C137.957 23.1484 137.686 23.2161 137.463 23.3516C137.244 23.487 137.064 23.6745 136.923 23.9141C136.788 24.1484 136.689 24.4193 136.627 24.7266C136.564 25.0286 136.533 25.3516 136.533 25.6953ZM148.126 28.3984C148.402 28.3984 148.646 28.3464 148.86 28.2422C149.074 28.1328 149.24 27.9818 149.36 27.7891C149.485 27.5911 149.55 27.3594 149.555 27.0938H151.673C151.667 27.6875 151.508 28.2161 151.196 28.6797C150.883 29.138 150.464 29.5 149.938 29.7656C149.412 30.026 148.824 30.1562 148.173 30.1562C147.516 30.1562 146.943 30.0469 146.454 29.8281C145.969 29.6094 145.566 29.3073 145.243 28.9219C144.92 28.5312 144.678 28.0781 144.516 27.5625C144.355 27.0417 144.274 26.4844 144.274 25.8906V25.6641C144.274 25.0651 144.355 24.5078 144.516 23.9922C144.678 23.4714 144.92 23.0182 145.243 22.6328C145.566 22.2422 145.969 21.9375 146.454 21.7188C146.938 21.5 147.506 21.3906 148.157 21.3906C148.85 21.3906 149.456 21.5234 149.977 21.7891C150.503 22.0547 150.915 22.4349 151.212 22.9297C151.514 23.4193 151.667 24 151.673 24.6719H149.555C149.55 24.3906 149.49 24.1354 149.376 23.9062C149.266 23.6771 149.105 23.4948 148.891 23.3594C148.683 23.2188 148.425 23.1484 148.118 23.1484C147.79 23.1484 147.521 23.2188 147.313 23.3594C147.105 23.4948 146.943 23.6823 146.829 23.9219C146.714 24.1562 146.633 24.4245 146.587 24.7266C146.545 25.0234 146.524 25.3359 146.524 25.6641V25.8906C146.524 26.2188 146.545 26.5339 146.587 26.8359C146.628 27.138 146.706 27.4062 146.821 27.6406C146.941 27.875 147.105 28.0599 147.313 28.1953C147.521 28.3307 147.792 28.3984 148.126 28.3984ZM159.625 21.5469V23.3125H155.468V21.5469H159.625ZM161.273 21.5469V30H159.023V21.5469H161.273ZM154.906 21.5469H157.117L156.89 25.8125C156.859 26.4219 156.794 26.9583 156.695 27.4219C156.596 27.8854 156.463 28.2812 156.297 28.6094C156.135 28.9375 155.94 29.2057 155.711 29.4141C155.487 29.6172 155.224 29.7656 154.922 29.8594C154.625 29.9531 154.297 30 153.937 30H153.25L153.226 28.2266L153.515 28.1953C153.682 28.1797 153.828 28.1328 153.953 28.0547C154.083 27.9714 154.192 27.8542 154.281 27.7031C154.375 27.5469 154.453 27.3516 154.515 27.1172C154.578 26.8776 154.627 26.5964 154.664 26.2734C154.705 25.9505 154.734 25.5781 154.75 25.1562L154.906 21.5469ZM166.483 29.0469L168.725 21.5469H171.139L167.741 31.2734C167.668 31.487 167.569 31.7161 167.444 31.9609C167.324 32.2057 167.16 32.4375 166.952 32.6562C166.749 32.8802 166.491 33.0625 166.178 33.2031C165.871 33.3438 165.494 33.4141 165.046 33.4141C164.832 33.4141 164.658 33.401 164.522 33.375C164.387 33.349 164.225 33.3125 164.038 33.2656V31.6172C164.095 31.6172 164.155 31.6172 164.218 31.6172C164.28 31.6224 164.34 31.625 164.397 31.625C164.694 31.625 164.936 31.5911 165.124 31.5234C165.311 31.4557 165.462 31.3516 165.577 31.2109C165.691 31.0755 165.783 30.8984 165.85 30.6797L166.483 29.0469ZM165.546 21.5469L167.382 27.6719L167.702 30.0547L166.171 30.2188L163.132 21.5469H165.546ZM178.748 21.5469V23.3125H175.232V30H172.982V21.5469H178.748ZM183.184 29.0469L185.427 21.5469H187.841L184.442 31.2734C184.369 31.487 184.27 31.7161 184.145 31.9609C184.026 32.2057 183.861 32.4375 183.653 32.6562C183.45 32.8802 183.192 33.0625 182.88 33.2031C182.572 33.3438 182.195 33.4141 181.747 33.4141C181.533 33.4141 181.359 33.401 181.223 33.375C181.088 33.349 180.927 33.3125 180.739 33.2656V31.6172C180.796 31.6172 180.856 31.6172 180.919 31.6172C180.981 31.6224 181.041 31.625 181.098 31.625C181.395 31.625 181.637 31.5911 181.825 31.5234C182.012 31.4557 182.164 31.3516 182.278 31.2109C182.393 31.0755 182.484 30.8984 182.552 30.6797L183.184 29.0469ZM182.247 21.5469L184.083 27.6719L184.403 30.0547L182.872 30.2188L179.833 21.5469H182.247Z" fill="white"/>
<defs>
<filter id="filter0_d_26764_8" x="0" y="0" width="224" height="58" filterUnits="userSpaceOnUse" color-interpolation-filters="sRGB">
<feFlood flood-opacity="0" result="BackgroundImageFix"/>
<feColorMatrix in="SourceAlpha" type="matrix" values="0 0 0 0 0 0 0 0 0 0 0 0 0 0 0 0 0 0 127 0" result="hardAlpha"/>
<feOffset dy="4"/>
<feGaussianBlur stdDeviation="2"/>
<feColorMatrix type="matrix" values="0 0 0 0 0 0 0 0 0 0 0 0 0 0 0 0 0 0 0.15 0"/>
<feBlend mode="normal" in2="BackgroundImageFix" result="effect1_dropShadow_26764_8"/>
<feBlend mode="normal" in="SourceGraphic" in2="effect1_dropShadow_26764_8" result="shape"/>
</filter>
</defs>
</svg>
