<svg width="1600" height="600" viewBox="0 0 1600 600" fill="none" xmlns="http://www.w3.org/2000/svg">
<rect width="1600" height="600" fill="#2F303A"/>
<path d="M519.774 239.199V245H503.102V239.199H519.774ZM505.788 213.719V245H498.247V213.719H505.788ZM517.626 226.137V231.744H503.102V226.137H517.626ZM519.839 213.719V219.541H503.102V213.719H519.839ZM537.732 216.383H545.553C547.443 216.383 549.184 216.691 550.774 217.307C552.363 217.923 553.746 218.803 554.92 219.949C556.094 221.095 557.004 222.477 557.649 224.096C558.293 225.714 558.615 227.533 558.615 229.553C558.615 231.501 558.293 233.262 557.649 234.838C557.004 236.413 556.094 237.76 554.92 238.877C553.746 239.994 552.363 240.854 550.774 241.455C549.184 242.042 547.443 242.336 545.553 242.336H537.732C535.828 242.336 534.073 242.042 532.469 241.455C530.865 240.854 529.468 240.001 528.279 238.898C527.105 237.781 526.188 236.442 525.529 234.881C524.885 233.305 524.563 231.544 524.563 229.596C524.563 227.576 524.885 225.757 525.529 224.139C526.188 222.52 527.105 221.131 528.279 219.971C529.468 218.811 530.865 217.923 532.469 217.307C534.073 216.691 535.828 216.383 537.732 216.383ZM537.732 222.441C536.587 222.441 535.555 222.699 534.639 223.215C533.722 223.73 532.999 224.518 532.469 225.578C531.939 226.624 531.674 227.963 531.674 229.596C531.674 230.727 531.831 231.715 532.147 232.561C532.462 233.406 532.899 234.1 533.457 234.645C534.016 235.189 534.66 235.597 535.391 235.869C536.121 236.141 536.902 236.277 537.732 236.277H545.596C546.713 236.277 547.716 236.034 548.604 235.547C549.492 235.046 550.193 234.294 550.709 233.291C551.239 232.288 551.504 231.042 551.504 229.553C551.504 228.335 551.354 227.283 551.053 226.395C550.752 225.507 550.33 224.769 549.785 224.182C549.255 223.594 548.632 223.158 547.916 222.871C547.2 222.585 546.427 222.441 545.596 222.441H537.732ZM545.252 212.43V246.289H538.012V212.43H545.252ZM586.542 239.199V245H569.871V239.199H586.542ZM572.556 213.719V245H565.015V213.719H572.556ZM584.394 226.137V231.744H569.871V226.137H584.394ZM586.607 213.719V219.541H569.871V213.719H586.607ZM599.753 213.719V245H592.233V213.719H599.753ZM617.8 213.719L606.563 232.625H598.442L597.54 225.814H602.675L608.69 213.719H617.8ZM609.979 245L602.653 231.314L608.132 226.266L618.874 245H609.979ZM638.551 213.719V245H631.01V213.719H638.551ZM647.961 213.719V219.541H621.815V213.719H647.961ZM660.914 233.463L672.15 213.719H679.691V245H672.15V225.277L660.914 245H653.373V213.719H660.914V233.463ZM699.712 231.701H691.655L691.612 226.76H698.143C699.318 226.76 700.256 226.631 700.958 226.373C701.66 226.101 702.168 225.707 702.483 225.191C702.813 224.676 702.977 224.031 702.977 223.258C702.977 222.37 702.813 221.654 702.483 221.109C702.154 220.565 701.631 220.171 700.915 219.928C700.213 219.67 699.304 219.541 698.186 219.541H694.491V245H686.95V213.719H698.186C700.12 213.719 701.846 213.898 703.364 214.256C704.882 214.6 706.171 215.13 707.231 215.846C708.306 216.562 709.122 217.464 709.681 218.553C710.239 219.627 710.518 220.895 710.518 222.355C710.518 223.63 710.246 224.826 709.702 225.943C709.158 227.061 708.248 227.97 706.974 228.672C705.713 229.359 703.987 229.717 701.796 229.746L699.712 231.701ZM699.411 245H689.829L692.407 239.199H699.411C700.442 239.199 701.266 239.042 701.882 238.727C702.512 238.397 702.963 237.967 703.235 237.438C703.522 236.893 703.665 236.292 703.665 235.633C703.665 234.831 703.529 234.136 703.257 233.549C702.999 232.962 702.584 232.51 702.011 232.195C701.438 231.866 700.671 231.701 699.712 231.701H693.374L693.417 226.76H701.001L702.763 228.736C704.854 228.65 706.508 228.944 707.725 229.617C708.957 230.29 709.838 231.178 710.368 232.281C710.898 233.384 711.163 234.537 711.163 235.74C711.163 237.788 710.719 239.5 709.831 240.875C708.957 242.25 707.647 243.281 705.899 243.969C704.152 244.656 701.989 245 699.411 245ZM739.069 226.137V231.938H723.02V226.137H739.069ZM725.533 213.719V245H717.992V213.719H725.533ZM744.139 213.719V245H736.619V213.719H744.139ZM759.584 213.719V245H752.064V213.719H759.584ZM793.61 234.387H785.832V228.564H793.61C794.67 228.564 795.529 228.385 796.188 228.027C796.847 227.669 797.326 227.175 797.627 226.545C797.942 225.9 798.1 225.177 798.1 224.375C798.1 223.516 797.942 222.721 797.627 221.99C797.326 221.26 796.847 220.673 796.188 220.229C795.529 219.77 794.67 219.541 793.61 219.541H788.668V245H781.127V213.719H793.61C796.116 213.719 798.272 214.177 800.076 215.094C801.895 216.01 803.292 217.271 804.266 218.875C805.24 220.465 805.727 222.284 805.727 224.332C805.727 226.352 805.24 228.113 804.266 229.617C803.292 231.121 801.895 232.296 800.076 233.141C798.272 233.971 796.116 234.387 793.61 234.387ZM820.441 213.719V245H812.922V213.719H820.441ZM828.216 213.719H835.778V239.199H843.556V213.719H851.097V239.199H858.767V213.719H866.286V245H828.216V213.719ZM895.094 239.199V245H878.422V239.199H895.094ZM881.108 213.719V245H873.567V213.719H881.108ZM892.946 226.137V231.744H878.422V226.137H892.946ZM895.159 213.719V219.541H878.422V213.719H895.159ZM921.904 226.137V231.938H905.855V226.137H921.904ZM908.369 213.719V245H900.828V213.719H908.369ZM926.974 213.719V245H919.455V213.719H926.974ZM955.482 226.137V231.938H939.433V226.137H955.482ZM941.946 213.719V245H934.405V213.719H941.946ZM960.552 213.719V245H953.032V213.719H960.552ZM984.268 234.021H975.911L973.676 233.098C971.127 232.296 969.186 231.107 967.854 229.531C966.522 227.941 965.856 225.915 965.856 223.451C965.856 221.303 966.336 219.512 967.295 218.08C968.255 216.633 969.616 215.545 971.377 214.814C973.139 214.084 975.23 213.719 977.651 213.719H988.995V245H981.432V219.541H977.651C976.147 219.541 975.058 219.935 974.385 220.723C973.712 221.496 973.375 222.628 973.375 224.117C973.375 225.263 973.533 226.165 973.848 226.824C974.178 227.483 974.657 227.956 975.288 228.242C975.918 228.514 976.706 228.65 977.651 228.65H984.225L984.268 234.021ZM978.467 231.207L971.829 245H963.622L970.174 231.207H978.467ZM1034.32 239.199V245H1012.34V239.199H1034.32ZM1014.84 239.199V252.67H1007.85L1007.34 239.199H1014.84ZM1039.46 239.199L1038.66 252.691H1031.89V239.199H1039.46ZM1031.03 213.719V219.541H1015.33V213.719H1031.03ZM1036.1 213.719V245H1028.61V213.719H1036.1ZM1014.84 213.719H1022.35L1021.43 226.545C1021.27 228.736 1021.02 230.641 1020.68 232.26C1020.34 233.878 1019.93 235.275 1019.45 236.449C1018.98 237.624 1018.47 238.633 1017.91 239.479C1017.35 240.324 1016.76 241.061 1016.15 241.691C1015.54 242.322 1014.94 242.895 1014.34 243.41C1013.74 243.926 1013.16 244.456 1012.6 245H1008.02V239.199H1009.53C1009.97 238.884 1010.42 238.462 1010.86 237.932C1011.32 237.387 1011.75 236.65 1012.15 235.719C1012.55 234.788 1012.9 233.577 1013.2 232.088C1013.5 230.598 1013.73 228.751 1013.89 226.545L1014.84 213.719ZM1066.27 213.719V219.541H1050.11V213.719H1066.27ZM1071.36 213.719V245H1063.82V213.719H1071.36ZM1049.59 213.719H1057.09L1056.28 229.617C1056.15 232.023 1055.9 234.1 1055.55 235.848C1055.19 237.581 1054.71 239.042 1054.11 240.23C1053.5 241.405 1052.78 242.343 1051.94 243.045C1051.09 243.747 1050.11 244.248 1048.99 244.549C1047.89 244.85 1046.65 245 1045.28 245H1043.45V239.199L1044.27 239.113C1044.92 239.042 1045.51 238.863 1046.01 238.576C1046.51 238.275 1046.94 237.831 1047.3 237.244C1047.67 236.657 1047.98 235.905 1048.22 234.988C1048.46 234.072 1048.66 232.962 1048.8 231.658C1048.96 230.34 1049.06 228.801 1049.12 227.039L1049.59 213.719ZM1094.99 234.021H1086.63L1084.4 233.098C1081.85 232.296 1079.91 231.107 1078.57 229.531C1077.24 227.941 1076.58 225.915 1076.58 223.451C1076.58 221.303 1077.06 219.512 1078.02 218.08C1078.98 216.633 1080.34 215.545 1082.1 214.814C1083.86 214.084 1085.95 213.719 1088.37 213.719H1099.71V245H1092.15V219.541H1088.37C1086.87 219.541 1085.78 219.935 1085.11 220.723C1084.43 221.496 1084.1 222.628 1084.1 224.117C1084.1 225.263 1084.25 226.165 1084.57 226.824C1084.9 227.483 1085.38 227.956 1086.01 228.242C1086.64 228.514 1087.43 228.65 1088.37 228.65H1094.95L1094.99 234.021ZM1089.19 231.207L1082.55 245H1074.34L1080.89 231.207H1089.19ZM609.719 291.701H601.662L601.619 286.76H608.151C609.325 286.76 610.263 286.631 610.965 286.373C611.667 286.101 612.175 285.707 612.49 285.191C612.82 284.676 612.985 284.031 612.985 283.258C612.985 282.37 612.82 281.654 612.49 281.109C612.161 280.565 611.638 280.171 610.922 279.928C610.22 279.67 609.311 279.541 608.194 279.541H604.498V305H596.957V273.719H608.194C610.127 273.719 611.853 273.898 613.371 274.256C614.889 274.6 616.179 275.13 617.238 275.846C618.313 276.562 619.129 277.464 619.688 278.553C620.246 279.627 620.526 280.895 620.526 282.355C620.526 283.63 620.253 284.826 619.709 285.943C619.165 287.061 618.255 287.97 616.981 288.672C615.72 289.359 613.994 289.717 611.803 289.746L609.719 291.701ZM609.418 305H599.836L602.414 299.199H609.418C610.449 299.199 611.273 299.042 611.889 298.727C612.519 298.397 612.97 297.967 613.242 297.438C613.529 296.893 613.672 296.292 613.672 295.633C613.672 294.831 613.536 294.136 613.264 293.549C613.006 292.962 612.591 292.51 612.018 292.195C611.445 291.866 610.679 291.701 609.719 291.701H603.381L603.424 286.76H611.008L612.77 288.736C614.861 288.65 616.515 288.944 617.733 289.617C618.964 290.29 619.845 291.178 620.375 292.281C620.905 293.384 621.17 294.537 621.17 295.74C621.17 297.788 620.726 299.5 619.838 300.875C618.964 302.25 617.654 303.281 615.906 303.969C614.159 304.656 611.996 305 609.418 305ZM641.255 280.293L633.628 305H625.529L637.023 273.719H642.158L641.255 280.293ZM647.572 305L639.923 280.293L638.935 273.719H644.134L655.693 305H647.572ZM647.271 293.334V299.156H631.222V293.334H647.271ZM660.46 273.719H668.022V299.199H675.8V273.719H683.341V299.199H691.011V273.719H698.53V305H660.46V273.719ZM732.28 288.736V290.004C732.28 292.396 731.943 294.544 731.27 296.449C730.611 298.34 729.673 299.958 728.455 301.305C727.238 302.637 725.798 303.661 724.137 304.377C722.475 305.079 720.642 305.43 718.637 305.43C716.617 305.43 714.77 305.079 713.094 304.377C711.433 303.661 709.986 302.637 708.754 301.305C707.537 299.958 706.591 298.34 705.918 296.449C705.259 294.544 704.93 292.396 704.93 290.004V288.736C704.93 286.344 705.259 284.196 705.918 282.291C706.591 280.386 707.53 278.768 708.733 277.436C709.95 276.089 711.39 275.065 713.051 274.363C714.727 273.647 716.574 273.289 718.594 273.289C720.599 273.289 722.433 273.647 724.094 274.363C725.77 275.065 727.216 276.089 728.434 277.436C729.651 278.768 730.597 280.386 731.27 282.291C731.943 284.196 732.28 286.344 732.28 288.736ZM724.631 290.004V288.693C724.631 287.146 724.495 285.786 724.223 284.611C723.965 283.423 723.578 282.427 723.063 281.625C722.547 280.823 721.91 280.221 721.151 279.82C720.406 279.405 719.554 279.197 718.594 279.197C717.591 279.197 716.718 279.405 715.973 279.82C715.228 280.221 714.605 280.823 714.104 281.625C713.602 282.427 713.223 283.423 712.965 284.611C712.722 285.786 712.6 287.146 712.6 288.693V290.004C712.6 291.536 712.722 292.897 712.965 294.086C713.223 295.26 713.602 296.256 714.104 297.072C714.619 297.889 715.25 298.505 715.994 298.92C716.753 299.335 717.634 299.543 718.637 299.543C719.597 299.543 720.449 299.335 721.194 298.92C721.938 298.505 722.561 297.889 723.063 297.072C723.578 296.256 723.965 295.26 724.223 294.086C724.495 292.897 724.631 291.536 724.631 290.004ZM759.906 273.719V279.541H746.306V305H738.787V273.719H759.906ZM791.013 288.736V290.004C791.013 292.396 790.676 294.544 790.003 296.449C789.344 298.34 788.406 299.958 787.188 301.305C785.971 302.637 784.532 303.661 782.87 304.377C781.209 305.079 779.375 305.43 777.37 305.43C775.351 305.43 773.503 305.079 771.827 304.377C770.166 303.661 768.719 302.637 767.487 301.305C766.27 299.958 765.324 298.34 764.651 296.449C763.992 294.544 763.663 292.396 763.663 290.004V288.736C763.663 286.344 763.992 284.196 764.651 282.291C765.324 280.386 766.263 278.768 767.466 277.436C768.683 276.089 770.123 275.065 771.784 274.363C773.46 273.647 775.308 273.289 777.327 273.289C779.332 273.289 781.166 273.647 782.827 274.363C784.503 275.065 785.949 276.089 787.167 277.436C788.384 278.768 789.33 280.386 790.003 282.291C790.676 284.196 791.013 286.344 791.013 288.736ZM783.364 290.004V288.693C783.364 287.146 783.228 285.786 782.956 284.611C782.698 283.423 782.311 282.427 781.796 281.625C781.28 280.823 780.643 280.221 779.884 279.82C779.139 279.405 778.287 279.197 777.327 279.197C776.324 279.197 775.451 279.405 774.706 279.82C773.961 280.221 773.338 280.823 772.837 281.625C772.336 282.427 771.956 283.423 771.698 284.611C771.455 285.786 771.333 287.146 771.333 288.693V290.004C771.333 291.536 771.455 292.897 771.698 294.086C771.956 295.26 772.336 296.256 772.837 297.072C773.352 297.889 773.983 298.505 774.727 298.92C775.487 299.335 776.367 299.543 777.37 299.543C778.33 299.543 779.182 299.335 779.927 298.92C780.671 298.505 781.295 297.889 781.796 297.072C782.311 296.256 782.698 295.26 782.956 294.086C783.228 292.897 783.364 291.536 783.364 290.004ZM832.279 273.719V279.541H818.679V305H811.16V273.719H832.279ZM815.886 284.482H822.611C825.146 284.482 827.352 284.905 829.228 285.75C831.105 286.595 832.551 287.777 833.568 289.295C834.599 290.813 835.115 292.589 835.115 294.623C835.115 296.156 834.821 297.559 834.234 298.834C833.647 300.094 832.802 301.19 831.699 302.121C830.61 303.038 829.3 303.747 827.767 304.248C826.235 304.749 824.516 305 822.611 305H811.181V273.719H818.744V299.199H822.611C823.685 299.199 824.588 298.992 825.318 298.576C826.063 298.161 826.629 297.609 827.015 296.922C827.402 296.22 827.595 295.439 827.595 294.58C827.595 293.749 827.402 293.012 827.015 292.367C826.629 291.723 826.063 291.214 825.318 290.842C824.588 290.469 823.685 290.283 822.611 290.283H815.886V284.482ZM849.314 273.719V305H841.794V273.719H849.314ZM869.957 290.025H864.565V286.244H868.561C869.492 286.244 870.244 286.094 870.817 285.793C871.39 285.478 871.812 285.034 872.084 284.461C872.357 283.874 872.493 283.186 872.493 282.398C872.493 281.811 872.335 281.267 872.02 280.766C871.719 280.264 871.254 279.863 870.623 279.562C869.993 279.262 869.191 279.111 868.217 279.111C867.472 279.111 866.792 279.233 866.176 279.477C865.56 279.72 865.073 280.078 864.715 280.551C864.357 281.009 864.178 281.582 864.178 282.27H856.659C856.659 280.866 856.967 279.613 857.582 278.51C858.198 277.407 859.036 276.469 860.096 275.695C861.17 274.922 862.402 274.335 863.791 273.934C865.195 273.518 866.67 273.311 868.217 273.311C870.008 273.311 871.626 273.504 873.073 273.891C874.519 274.263 875.758 274.822 876.789 275.566C877.835 276.311 878.637 277.242 879.196 278.359C879.754 279.462 880.034 280.744 880.034 282.205C880.034 283.279 879.79 284.289 879.303 285.234C878.83 286.18 878.15 287.01 877.262 287.727C876.374 288.443 875.307 289.008 874.061 289.424C872.829 289.825 871.461 290.025 869.957 290.025ZM864.565 288.113H869.957C871.633 288.113 873.123 288.292 874.426 288.65C875.73 289.008 876.832 289.531 877.735 290.219C878.651 290.906 879.346 291.758 879.819 292.775C880.291 293.778 880.528 294.931 880.528 296.234C880.528 297.695 880.22 298.999 879.604 300.145C879.002 301.276 878.15 302.236 877.047 303.023C875.944 303.811 874.641 304.406 873.137 304.807C871.648 305.208 870.008 305.408 868.217 305.408C866.771 305.408 865.331 305.236 863.899 304.893C862.481 304.535 861.192 303.99 860.032 303.26C858.871 302.529 857.941 301.591 857.239 300.445C856.551 299.299 856.207 297.924 856.207 296.32H863.77C863.77 296.951 863.956 297.516 864.329 298.018C864.715 298.519 865.245 298.913 865.918 299.199C866.592 299.486 867.358 299.629 868.217 299.629C869.22 299.629 870.072 299.471 870.774 299.156C871.49 298.841 872.034 298.411 872.407 297.867C872.779 297.323 872.965 296.721 872.965 296.062C872.965 295.289 872.872 294.637 872.686 294.107C872.5 293.563 872.22 293.126 871.848 292.797C871.476 292.453 871.01 292.21 870.452 292.066C869.907 291.909 869.277 291.83 868.561 291.83H864.565V288.113ZM908.691 286.137V291.938H892.642V286.137H908.691ZM895.156 273.719V305H887.615V273.719H895.156ZM913.761 273.719V305H906.242V273.719H913.761ZM942.72 299.199V305H926.048V299.199H942.72ZM928.734 273.719V305H921.193V273.719H928.734ZM940.571 286.137V291.744H926.048V286.137H940.571ZM942.784 273.719V279.541H926.048V273.719H942.784ZM966.243 294.408H973.762C973.662 296.585 973.075 298.505 972 300.166C970.926 301.827 969.437 303.124 967.532 304.055C965.641 304.971 963.407 305.43 960.829 305.43C958.737 305.43 956.868 305.079 955.221 304.377C953.588 303.675 952.199 302.665 951.053 301.348C949.922 300.03 949.055 298.433 948.454 296.557C947.866 294.68 947.573 292.568 947.573 290.219V288.521C947.573 286.173 947.881 284.06 948.497 282.184C949.127 280.293 950.015 278.689 951.161 277.371C952.321 276.039 953.71 275.022 955.329 274.32C956.947 273.618 958.745 273.268 960.721 273.268C963.443 273.268 965.741 273.755 967.618 274.729C969.494 275.702 970.948 277.042 971.979 278.746C973.01 280.436 973.619 282.363 973.805 284.525H966.286C966.257 283.351 966.056 282.37 965.684 281.582C965.312 280.78 964.724 280.178 963.922 279.777C963.12 279.376 962.053 279.176 960.721 279.176C959.79 279.176 958.981 279.348 958.293 279.691C957.606 280.035 957.033 280.579 956.575 281.324C956.116 282.069 955.773 283.036 955.543 284.225C955.329 285.399 955.221 286.817 955.221 288.479V290.219C955.221 291.88 955.321 293.298 955.522 294.473C955.722 295.647 956.045 296.607 956.489 297.352C956.933 298.096 957.506 298.648 958.207 299.006C958.924 299.35 959.797 299.521 960.829 299.521C961.974 299.521 962.941 299.342 963.729 298.984C964.517 298.612 965.125 298.053 965.555 297.309C965.985 296.549 966.214 295.583 966.243 294.408ZM989.873 293.205L997.264 273.719H1005.23L994.685 298.533C994.284 299.45 993.819 300.324 993.289 301.154C992.773 301.985 992.157 302.723 991.441 303.367C990.739 304.012 989.909 304.52 988.949 304.893C987.989 305.265 986.865 305.451 985.576 305.451C985.261 305.451 984.874 305.444 984.416 305.43C983.972 305.43 983.585 305.423 983.256 305.408L983.127 299.564C983.313 299.607 983.571 299.636 983.9 299.65C984.23 299.65 984.466 299.65 984.609 299.65C985.469 299.65 986.149 299.55 986.65 299.35C987.152 299.135 987.545 298.82 987.832 298.404C988.133 297.975 988.391 297.43 988.605 296.771L989.873 293.205ZM985.683 273.719L992.086 287.297L994.535 295.977H989.121L977.67 273.719H985.683Z" fill="white"/>
<g filter="url(#filter0_d_1_1078)">
<rect x="692" y="350" width="216" height="50" rx="4" fill="#2196F3"/>
</g>
<path d="M729.402 374.547H727.636V373.305H729.042C729.454 373.305 729.787 373.242 730.042 373.117C730.297 372.987 730.485 372.805 730.605 372.57C730.724 372.336 730.784 372.06 730.784 371.742C730.784 371.482 730.717 371.242 730.581 371.023C730.451 370.805 730.248 370.63 729.972 370.5C729.696 370.365 729.344 370.297 728.917 370.297C728.594 370.297 728.3 370.354 728.034 370.469C727.769 370.583 727.558 370.745 727.402 370.953C727.245 371.156 727.167 371.404 727.167 371.695H724.831C724.831 371.195 724.938 370.747 725.152 370.352C725.37 369.951 725.667 369.612 726.042 369.336C726.422 369.055 726.86 368.841 727.355 368.695C727.849 368.549 728.37 368.477 728.917 368.477C729.558 368.477 730.136 368.547 730.652 368.688C731.167 368.823 731.61 369.026 731.98 369.297C732.349 369.568 732.633 369.904 732.831 370.305C733.029 370.706 733.128 371.172 733.128 371.703C733.128 372.094 733.04 372.461 732.863 372.805C732.685 373.148 732.433 373.451 732.105 373.711C731.777 373.971 731.383 374.177 730.925 374.328C730.467 374.474 729.959 374.547 729.402 374.547ZM727.636 373.867H729.402C730.021 373.867 730.571 373.932 731.05 374.062C731.534 374.193 731.943 374.383 732.277 374.633C732.615 374.883 732.87 375.193 733.042 375.562C733.219 375.927 733.308 376.346 733.308 376.82C733.308 377.352 733.198 377.823 732.98 378.234C732.766 378.646 732.461 378.995 732.066 379.281C731.675 379.568 731.211 379.784 730.675 379.93C730.144 380.076 729.558 380.148 728.917 380.148C728.407 380.148 727.899 380.086 727.394 379.961C726.889 379.831 726.43 379.633 726.019 379.367C725.607 379.102 725.279 378.76 725.034 378.344C724.79 377.927 724.667 377.427 724.667 376.844H727.019C727.019 377.12 727.099 377.372 727.261 377.602C727.422 377.826 727.646 378.005 727.933 378.141C728.219 378.271 728.547 378.336 728.917 378.336C729.349 378.336 729.717 378.268 730.019 378.133C730.326 377.997 730.558 377.812 730.714 377.578C730.876 377.339 730.956 377.076 730.956 376.789C730.956 376.482 730.915 376.221 730.831 376.008C730.748 375.794 730.626 375.62 730.464 375.484C730.303 375.344 730.102 375.242 729.863 375.18C729.628 375.117 729.355 375.086 729.042 375.086H727.636V373.867ZM740.424 378.094V374.328C740.424 374.057 740.38 373.826 740.291 373.633C740.203 373.435 740.065 373.281 739.877 373.172C739.695 373.062 739.458 373.008 739.166 373.008C738.916 373.008 738.7 373.052 738.518 373.141C738.336 373.224 738.195 373.346 738.096 373.508C737.997 373.664 737.948 373.849 737.948 374.062H735.698C735.698 373.703 735.781 373.362 735.948 373.039C736.114 372.716 736.356 372.432 736.674 372.188C736.992 371.938 737.369 371.742 737.807 371.602C738.25 371.461 738.744 371.391 739.291 371.391C739.948 371.391 740.531 371.5 741.041 371.719C741.552 371.938 741.953 372.266 742.244 372.703C742.541 373.141 742.69 373.688 742.69 374.344V377.961C742.69 378.424 742.718 378.805 742.776 379.102C742.833 379.393 742.916 379.648 743.026 379.867V380H740.752C740.643 379.771 740.559 379.484 740.502 379.141C740.45 378.792 740.424 378.443 740.424 378.094ZM740.721 374.852L740.737 376.125H739.479C739.182 376.125 738.924 376.159 738.705 376.227C738.487 376.294 738.307 376.391 738.166 376.516C738.026 376.635 737.921 376.776 737.854 376.938C737.791 377.099 737.76 377.276 737.76 377.469C737.76 377.661 737.804 377.836 737.893 377.992C737.981 378.143 738.109 378.263 738.276 378.352C738.442 378.435 738.638 378.477 738.862 378.477C739.2 378.477 739.494 378.409 739.744 378.273C739.994 378.138 740.187 377.971 740.323 377.773C740.463 377.576 740.536 377.388 740.541 377.211L741.135 378.164C741.052 378.378 740.937 378.599 740.791 378.828C740.651 379.057 740.471 379.273 740.252 379.477C740.033 379.674 739.77 379.839 739.463 379.969C739.156 380.094 738.791 380.156 738.369 380.156C737.833 380.156 737.346 380.049 736.908 379.836C736.476 379.617 736.132 379.318 735.877 378.938C735.627 378.552 735.502 378.115 735.502 377.625C735.502 377.182 735.586 376.789 735.752 376.445C735.919 376.102 736.164 375.812 736.487 375.578C736.815 375.339 737.224 375.159 737.713 375.039C738.203 374.914 738.77 374.852 739.416 374.852H740.721ZM750.525 377.414L752.743 371.547H754.579L751.283 380H749.767L746.486 371.547H748.322L750.525 377.414ZM747.783 371.547V380H745.533V371.547H747.783ZM753.322 380V371.547H755.572V380H753.322ZM758.141 375.859V375.695C758.141 375.076 758.229 374.505 758.407 373.984C758.584 373.458 758.841 373.003 759.18 372.617C759.519 372.232 759.935 371.932 760.43 371.719C760.925 371.5 761.493 371.391 762.133 371.391C762.774 371.391 763.344 371.5 763.844 371.719C764.344 371.932 764.763 372.232 765.102 372.617C765.446 373.003 765.706 373.458 765.883 373.984C766.06 374.505 766.149 375.076 766.149 375.695V375.859C766.149 376.474 766.06 377.044 765.883 377.57C765.706 378.091 765.446 378.547 765.102 378.938C764.763 379.323 764.347 379.622 763.852 379.836C763.357 380.049 762.789 380.156 762.149 380.156C761.508 380.156 760.938 380.049 760.438 379.836C759.943 379.622 759.524 379.323 759.18 378.938C758.841 378.547 758.584 378.091 758.407 377.57C758.229 377.044 758.141 376.474 758.141 375.859ZM760.391 375.695V375.859C760.391 376.214 760.422 376.544 760.485 376.852C760.547 377.159 760.646 377.43 760.782 377.664C760.922 377.893 761.104 378.073 761.328 378.203C761.552 378.333 761.826 378.398 762.149 378.398C762.461 378.398 762.729 378.333 762.953 378.203C763.177 378.073 763.357 377.893 763.493 377.664C763.628 377.43 763.727 377.159 763.789 376.852C763.857 376.544 763.891 376.214 763.891 375.859V375.695C763.891 375.352 763.857 375.029 763.789 374.727C763.727 374.419 763.625 374.148 763.485 373.914C763.349 373.674 763.17 373.487 762.946 373.352C762.722 373.216 762.451 373.148 762.133 373.148C761.815 373.148 761.545 373.216 761.321 373.352C761.102 373.487 760.922 373.674 760.782 373.914C760.646 374.148 760.547 374.419 760.485 374.727C760.422 375.029 760.391 375.352 760.391 375.695ZM772.703 376.469H770.054L770.038 374.992H772.226C772.518 374.992 772.755 374.964 772.937 374.906C773.119 374.844 773.252 374.753 773.335 374.633C773.424 374.508 773.468 374.357 773.468 374.18C773.468 374.023 773.439 373.891 773.382 373.781C773.33 373.667 773.249 373.573 773.14 373.5C773.031 373.427 772.893 373.375 772.726 373.344C772.564 373.307 772.374 373.289 772.156 373.289H770.89V380H768.64V371.547H772.156C772.708 371.547 773.203 371.596 773.64 371.695C774.078 371.789 774.45 371.932 774.757 372.125C775.07 372.318 775.307 372.562 775.468 372.859C775.635 373.151 775.718 373.497 775.718 373.898C775.718 374.159 775.658 374.404 775.538 374.633C775.424 374.862 775.252 375.065 775.023 375.242C774.794 375.419 774.51 375.565 774.171 375.68C773.838 375.789 773.453 375.857 773.015 375.883L772.703 376.469ZM772.703 380H769.499L770.273 378.258H772.703C772.979 378.258 773.205 378.224 773.382 378.156C773.559 378.089 773.689 377.99 773.773 377.859C773.861 377.724 773.906 377.562 773.906 377.375C773.906 377.193 773.867 377.034 773.788 376.898C773.71 376.763 773.583 376.659 773.406 376.586C773.234 376.508 772.999 376.469 772.703 376.469H770.601L770.617 374.992H773.007L773.554 375.586C774.148 375.622 774.637 375.734 775.023 375.922C775.408 376.109 775.692 376.349 775.874 376.641C776.062 376.927 776.156 377.242 776.156 377.586C776.156 377.987 776.08 378.339 775.929 378.641C775.778 378.943 775.554 379.195 775.257 379.398C774.966 379.596 774.606 379.747 774.179 379.852C773.752 379.951 773.26 380 772.703 380ZM780.741 376.859L783.577 371.547H785.827V380H783.577V374.68L780.741 380H778.491V371.547H780.741V376.859ZM792.826 371.547V380H790.568V371.547H792.826ZM795.544 371.547V373.289H787.888V371.547H795.544ZM799.895 376.859L802.731 371.547H804.981V380H802.731V374.68L799.895 380H797.645V371.547H799.895V376.859ZM818.307 371.547V373.312H814.213V371.547H818.307ZM814.862 371.547V380H812.612V371.547H814.862ZM819.948 371.547V380H817.69V371.547H819.948ZM822.283 375.859V375.695C822.283 375.076 822.371 374.505 822.548 373.984C822.726 373.458 822.983 373.003 823.322 372.617C823.66 372.232 824.077 371.932 824.572 371.719C825.067 371.5 825.634 371.391 826.275 371.391C826.916 371.391 827.486 371.5 827.986 371.719C828.486 371.932 828.905 372.232 829.244 372.617C829.588 373.003 829.848 373.458 830.025 373.984C830.202 374.505 830.291 375.076 830.291 375.695V375.859C830.291 376.474 830.202 377.044 830.025 377.57C829.848 378.091 829.588 378.547 829.244 378.938C828.905 379.323 828.489 379.622 827.994 379.836C827.499 380.049 826.931 380.156 826.291 380.156C825.65 380.156 825.08 380.049 824.58 379.836C824.085 379.622 823.666 379.323 823.322 378.938C822.983 378.547 822.726 378.091 822.548 377.57C822.371 377.044 822.283 376.474 822.283 375.859ZM824.533 375.695V375.859C824.533 376.214 824.564 376.544 824.627 376.852C824.689 377.159 824.788 377.43 824.923 377.664C825.064 377.893 825.246 378.073 825.47 378.203C825.694 378.333 825.968 378.398 826.291 378.398C826.603 378.398 826.871 378.333 827.095 378.203C827.319 378.073 827.499 377.893 827.634 377.664C827.77 377.43 827.869 377.159 827.931 376.852C827.999 376.544 828.033 376.214 828.033 375.859V375.695C828.033 375.352 827.999 375.029 827.931 374.727C827.869 374.419 827.767 374.148 827.627 373.914C827.491 373.674 827.311 373.487 827.088 373.352C826.864 373.216 826.593 373.148 826.275 373.148C825.957 373.148 825.686 373.216 825.463 373.352C825.244 373.487 825.064 373.674 824.923 373.914C824.788 374.148 824.689 374.419 824.627 374.727C824.564 375.029 824.533 375.352 824.533 375.695ZM836.126 378.398C836.402 378.398 836.646 378.346 836.86 378.242C837.074 378.133 837.24 377.982 837.36 377.789C837.485 377.591 837.55 377.359 837.555 377.094H839.673C839.667 377.688 839.508 378.216 839.196 378.68C838.883 379.138 838.464 379.5 837.938 379.766C837.412 380.026 836.824 380.156 836.173 380.156C835.516 380.156 834.943 380.047 834.454 379.828C833.969 379.609 833.566 379.307 833.243 378.922C832.92 378.531 832.678 378.078 832.516 377.562C832.355 377.042 832.274 376.484 832.274 375.891V375.664C832.274 375.065 832.355 374.508 832.516 373.992C832.678 373.471 832.92 373.018 833.243 372.633C833.566 372.242 833.969 371.938 834.454 371.719C834.938 371.5 835.506 371.391 836.157 371.391C836.85 371.391 837.456 371.523 837.977 371.789C838.503 372.055 838.915 372.435 839.212 372.93C839.514 373.419 839.667 374 839.673 374.672H837.555C837.55 374.391 837.49 374.135 837.376 373.906C837.266 373.677 837.105 373.495 836.891 373.359C836.683 373.219 836.425 373.148 836.118 373.148C835.79 373.148 835.521 373.219 835.313 373.359C835.105 373.495 834.943 373.682 834.829 373.922C834.714 374.156 834.633 374.424 834.587 374.727C834.545 375.023 834.524 375.336 834.524 375.664V375.891C834.524 376.219 834.545 376.534 834.587 376.836C834.628 377.138 834.706 377.406 834.821 377.641C834.941 377.875 835.105 378.06 835.313 378.195C835.521 378.331 835.792 378.398 836.126 378.398ZM847.625 371.547V373.312H843.468V371.547H847.625ZM849.273 371.547V380H847.023V371.547H849.273ZM842.906 371.547H845.117L844.89 375.812C844.859 376.422 844.794 376.958 844.695 377.422C844.596 377.885 844.463 378.281 844.297 378.609C844.135 378.938 843.94 379.206 843.711 379.414C843.487 379.617 843.224 379.766 842.922 379.859C842.625 379.953 842.297 380 841.937 380H841.25L841.226 378.227L841.515 378.195C841.682 378.18 841.828 378.133 841.953 378.055C842.083 377.971 842.192 377.854 842.281 377.703C842.375 377.547 842.453 377.352 842.515 377.117C842.578 376.878 842.627 376.596 842.664 376.273C842.705 375.951 842.734 375.578 842.75 375.156L842.906 371.547ZM854.483 379.047L856.725 371.547H859.139L855.741 381.273C855.668 381.487 855.569 381.716 855.444 381.961C855.324 382.206 855.16 382.438 854.952 382.656C854.749 382.88 854.491 383.062 854.178 383.203C853.871 383.344 853.494 383.414 853.046 383.414C852.832 383.414 852.658 383.401 852.522 383.375C852.387 383.349 852.225 383.312 852.038 383.266V381.617C852.095 381.617 852.155 381.617 852.218 381.617C852.28 381.622 852.34 381.625 852.397 381.625C852.694 381.625 852.936 381.591 853.124 381.523C853.311 381.456 853.462 381.352 853.577 381.211C853.691 381.076 853.783 380.898 853.85 380.68L854.483 379.047ZM853.546 371.547L855.382 377.672L855.702 380.055L854.171 380.219L851.132 371.547H853.546ZM866.748 371.547V373.312H863.232V380H860.982V371.547H866.748ZM871.184 379.047L873.427 371.547H875.841L872.442 381.273C872.369 381.487 872.27 381.716 872.145 381.961C872.026 382.206 871.861 382.438 871.653 382.656C871.45 382.88 871.192 383.062 870.88 383.203C870.572 383.344 870.195 383.414 869.747 383.414C869.533 383.414 869.359 383.401 869.223 383.375C869.088 383.349 868.927 383.312 868.739 383.266V381.617C868.796 381.617 868.856 381.617 868.919 381.617C868.981 381.622 869.041 381.625 869.098 381.625C869.395 381.625 869.637 381.591 869.825 381.523C870.012 381.456 870.164 381.352 870.278 381.211C870.393 381.076 870.484 380.898 870.552 380.68L871.184 379.047ZM870.247 371.547L872.083 377.672L872.403 380.055L870.872 380.219L867.833 371.547H870.247Z" fill="white"/>
<defs>
<filter id="filter0_d_1_1078" x="688" y="350" width="224" height="58" filterUnits="userSpaceOnUse" color-interpolation-filters="sRGB">
<feFlood flood-opacity="0" result="BackgroundImageFix"/>
<feColorMatrix in="SourceAlpha" type="matrix" values="0 0 0 0 0 0 0 0 0 0 0 0 0 0 0 0 0 0 127 0" result="hardAlpha"/>
<feOffset dy="4"/>
<feGaussianBlur stdDeviation="2"/>
<feColorMatrix type="matrix" values="0 0 0 0 0 0 0 0 0 0 0 0 0 0 0 0 0 0 0.15 0"/>
<feBlend mode="normal" in2="BackgroundImageFix" result="effect1_dropShadow_1_1078"/>
<feBlend mode="normal" in="SourceGraphic" in2="effect1_dropShadow_1_1078" result="shape"/>
</filter>
</defs>
</svg>
